# This file uses centimeters as units for non-parametric coordinates.

mtllib fence_01.mtl
g default
v -2.671882 0.000000 -0.328118
v -3.000000 0.000000 -0.464029
v -3.328118 0.000000 -0.328118
v -3.464030 0.000000 0.000000
v -3.328118 0.000000 0.328118
v -3.000000 0.000000 0.464030
v -2.671882 0.000000 0.328118
v -2.535970 0.000000 -0.000000
v -2.671882 4.146571 -0.328118
v -3.000000 4.146571 -0.464029
v -3.328118 4.146571 -0.328118
v -3.464030 4.146571 0.000000
v -3.328118 4.146571 0.328118
v -3.000000 4.146571 0.464030
v -2.671882 4.146571 0.328118
v -2.535970 4.146571 0.000000
v -3.000000 0.000000 0.000000
v -3.000000 4.146571 0.000000
v 3.328118 0.000000 -0.328118
v 3.000000 0.000000 -0.464029
v 2.671882 0.000000 -0.328118
v 2.535970 0.000000 0.000000
v 2.671882 0.000000 0.328118
v 3.000000 0.000000 0.464030
v 3.328118 0.000000 0.328118
v 3.464030 0.000000 -0.000000
v 3.328118 4.146571 -0.328118
v 3.000000 4.146571 -0.464029
v 2.671882 4.146571 -0.328118
v 2.535970 4.146571 0.000000
v 2.671882 4.146571 0.328118
v 3.000000 4.146571 0.464030
v 3.328118 4.146571 0.328118
v 3.464030 4.146571 0.000000
v 3.000000 0.000000 0.000000
v 3.000000 4.146571 0.000000
v -2.671863 3.015008 0.118039
v 2.671863 3.015008 0.118039
v -2.671863 3.636525 0.118039
v 2.671863 3.636525 0.118039
v -2.671863 3.636525 -0.118039
v 2.671863 3.636525 -0.118039
v -2.671863 3.015008 -0.118039
v 2.671863 3.015008 -0.118039
v -2.671863 1.436214 0.118039
v 2.671863 1.436214 0.118039
v -2.671863 2.057731 0.118039
v 2.671863 2.057731 0.118039
v -2.671863 2.057731 -0.118039
v 2.671863 2.057731 -0.118039
v -2.671863 1.436214 -0.118039
v 2.671863 1.436214 -0.118039
vt 0.610485 0.045765
vt 0.500000 0.000000
vt 0.389515 0.045765
vt 0.343750 0.156250
vt 0.389515 0.266735
vt 0.500000 0.312500
vt 0.610485 0.266735
vt 0.656250 0.156250
vt 0.375000 0.312500
vt 0.406250 0.312500
vt 0.437500 0.312500
vt 0.468750 0.312500
vt 0.500000 0.312500
vt 0.531250 0.312500
vt 0.562500 0.312500
vt 0.593750 0.312500
vt 0.625000 0.312500
vt 0.375000 0.688440
vt 0.406250 0.688440
vt 0.437500 0.688440
vt 0.468750 0.688440
vt 0.500000 0.688440
vt 0.531250 0.688440
vt 0.562500 0.688440
vt 0.593750 0.688440
vt 0.625000 0.688440
vt 0.610485 0.733265
vt 0.500000 0.687500
vt 0.389515 0.733265
vt 0.343750 0.843750
vt 0.389515 0.954235
vt 0.500000 1.000000
vt 0.610485 0.954235
vt 0.656250 0.843750
vt 0.500000 0.150000
vt 0.500000 0.837500
vt 0.375000 0.312500
vt 0.406250 0.312500
vt 0.406250 0.688440
vt 0.375000 0.688440
vt 0.437500 0.312500
vt 0.437500 0.688440
vt 0.468750 0.312500
vt 0.468750 0.688440
vt 0.500000 0.312500
vt 0.500000 0.688440
vt 0.531250 0.312500
vt 0.531250 0.688440
vt 0.562500 0.312500
vt 0.562500 0.688440
vt 0.593750 0.312500
vt 0.593750 0.688440
vt 0.625000 0.312500
vt 0.625000 0.688440
vt 0.500000 0.000000
vt 0.610485 0.045765
vt 0.500000 0.150000
vt 0.389515 0.045765
vt 0.343750 0.156250
vt 0.389515 0.266735
vt 0.500000 0.312500
vt 0.610485 0.266735
vt 0.656250 0.156250
vt 0.610485 0.954235
vt 0.500000 1.000000
vt 0.500000 0.837500
vt 0.389515 0.954235
vt 0.343750 0.843750
vt 0.389515 0.733265
vt 0.500000 0.687500
vt 0.610485 0.733265
vt 0.656250 0.843750
vt 0.375000 0.000000
vt 0.625000 0.000000
vt 0.625000 0.250000
vt 0.375000 0.250000
vt 0.625000 0.500000
vt 0.375000 0.500000
vt 0.625000 0.750000
vt 0.375000 0.750000
vt 0.625000 1.000000
vt 0.375000 1.000000
vt 0.875000 0.000000
vt 0.875000 0.250000
vt 0.125000 0.000000
vt 0.125000 0.250000
vt 0.375000 0.000000
vt 0.625000 0.000000
vt 0.625000 0.250000
vt 0.375000 0.250000
vt 0.625000 0.500000
vt 0.375000 0.500000
vt 0.625000 0.750000
vt 0.375000 0.750000
vt 0.625000 1.000000
vt 0.375000 1.000000
vt 0.875000 0.000000
vt 0.875000 0.250000
vt 0.125000 0.000000
vt 0.125000 0.250000
vn 0.382683 0.000000 -0.923880
vn 0.382683 0.000000 -0.923880
vn 0.382683 0.000000 -0.923880
vn 0.382683 0.000000 -0.923880
vn -0.382683 0.000000 -0.923880
vn -0.382683 0.000000 -0.923880
vn -0.382683 0.000000 -0.923880
vn -0.382683 0.000000 -0.923880
vn -0.923879 0.000000 -0.382684
vn -0.923879 0.000000 -0.382684
vn -0.923879 0.000000 -0.382684
vn -0.923879 0.000000 -0.382684
vn -0.923879 0.000000 0.382684
vn -0.923879 0.000000 0.382684
vn -0.923879 0.000000 0.382684
vn -0.923879 0.000000 0.382684
vn -0.382684 -0.000000 0.923880
vn -0.382684 -0.000000 0.923880
vn -0.382684 -0.000000 0.923880
vn -0.382684 -0.000000 0.923880
vn 0.382684 0.000000 0.923880
vn 0.382684 0.000000 0.923880
vn 0.382684 0.000000 0.923880
vn 0.382684 0.000000 0.923880
vn 0.923879 0.000000 0.382684
vn 0.923879 0.000000 0.382684
vn 0.923879 0.000000 0.382684
vn 0.923879 0.000000 0.382684
vn 0.923879 -0.000000 -0.382684
vn 0.923879 -0.000000 -0.382684
vn 0.923879 -0.000000 -0.382684
vn 0.923879 -0.000000 -0.382684
vn 0.000000 -1.000000 0.000000
vn 0.000000 -1.000000 0.000000
vn 0.000000 -1.000000 0.000000
vn 0.000000 -1.000000 0.000000
vn 0.000000 -1.000000 0.000000
vn 0.000000 -1.000000 0.000000
vn 0.000000 -1.000000 0.000000
vn 0.000000 -1.000000 0.000000
vn 0.000000 -1.000000 0.000000
vn 0.000000 1.000000 0.000001
vn 0.000000 1.000000 0.000000
vn 0.000000 1.000000 -0.000000
vn 0.000000 1.000000 0.000001
vn 0.000000 1.000000 0.000000
vn 0.000000 1.000000 -0.000001
vn 0.000000 1.000000 0.000000
vn 0.000000 1.000000 -0.000001
vn 0.000000 1.000000 0.000000
vn 0.382683 0.000000 -0.923880
vn 0.382683 0.000000 -0.923880
vn 0.382683 0.000000 -0.923880
vn 0.382683 0.000000 -0.923880
vn -0.382683 0.000000 -0.923880
vn -0.382683 0.000000 -0.923880
vn -0.382683 0.000000 -0.923880
vn -0.382683 0.000000 -0.923880
vn -0.923879 0.000000 -0.382684
vn -0.923879 0.000000 -0.382684
vn -0.923879 0.000000 -0.382684
vn -0.923879 0.000000 -0.382684
vn -0.923879 0.000000 0.382684
vn -0.923879 0.000000 0.382684
vn -0.923879 0.000000 0.382684
vn -0.923879 0.000000 0.382684
vn -0.382684 -0.000000 0.923880
vn -0.382684 -0.000000 0.923880
vn -0.382684 -0.000000 0.923880
vn -0.382684 -0.000000 0.923880
vn 0.382684 0.000000 0.923880
vn 0.382684 0.000000 0.923880
vn 0.382684 0.000000 0.923880
vn 0.382684 0.000000 0.923880
vn 0.923879 0.000000 0.382684
vn 0.923879 0.000000 0.382684
vn 0.923879 0.000000 0.382684
vn 0.923879 0.000000 0.382684
vn 0.923879 0.000000 -0.382684
vn 0.923879 0.000000 -0.382684
vn 0.923879 0.000000 -0.382684
vn 0.923879 0.000000 -0.382684
vn 0.000000 -1.000000 0.000000
vn 0.000000 -1.000000 0.000000
vn 0.000000 -1.000000 0.000000
vn 0.000000 -1.000000 0.000000
vn 0.000000 -1.000000 0.000000
vn 0.000000 -1.000000 0.000000
vn 0.000000 -1.000000 0.000000
vn 0.000000 -1.000000 0.000000
vn 0.000000 -1.000000 0.000000
vn 0.000000 1.000000 0.000001
vn 0.000000 1.000000 0.000000
vn 0.000000 1.000000 -0.000000
vn 0.000000 1.000000 0.000001
vn 0.000000 1.000000 0.000000
vn 0.000000 1.000000 -0.000001
vn 0.000000 1.000000 0.000000
vn 0.000000 1.000000 -0.000001
vn 0.000000 1.000000 0.000000
vn 0.000000 0.000000 1.000000
vn 0.000000 0.000000 1.000000
vn 0.000000 0.000000 1.000000
vn 0.000000 0.000000 1.000000
vn 0.000000 1.000000 0.000000
vn 0.000000 1.000000 0.000000
vn 0.000000 1.000000 0.000000
vn 0.000000 1.000000 0.000000
vn 0.000000 0.000000 -1.000000
vn 0.000000 0.000000 -1.000000
vn 0.000000 0.000000 -1.000000
vn 0.000000 0.000000 -1.000000
vn 0.000000 -1.000000 0.000000
vn 0.000000 -1.000000 0.000000
vn 0.000000 -1.000000 0.000000
vn 0.000000 -1.000000 0.000000
vn 1.000000 0.000000 0.000000
vn 1.000000 0.000000 0.000000
vn 1.000000 0.000000 0.000000
vn 1.000000 0.000000 0.000000
vn -1.000000 0.000000 0.000000
vn -1.000000 0.000000 0.000000
vn -1.000000 0.000000 0.000000
vn -1.000000 0.000000 0.000000
vn 0.000000 0.000000 1.000000
vn 0.000000 0.000000 1.000000
vn 0.000000 0.000000 1.000000
vn 0.000000 0.000000 1.000000
vn 0.000000 1.000000 0.000000
vn 0.000000 1.000000 0.000000
vn 0.000000 1.000000 0.000000
vn 0.000000 1.000000 0.000000
vn 0.000000 0.000000 -1.000000
vn 0.000000 0.000000 -1.000000
vn 0.000000 0.000000 -1.000000
vn 0.000000 0.000000 -1.000000
vn 0.000000 -1.000000 0.000000
vn 0.000000 -1.000000 0.000000
vn 0.000000 -1.000000 0.000000
vn 0.000000 -1.000000 0.000000
vn 1.000000 0.000000 0.000000
vn 1.000000 0.000000 0.000000
vn 1.000000 0.000000 0.000000
vn 1.000000 0.000000 0.000000
vn -1.000000 0.000000 0.000000
vn -1.000000 0.000000 0.000000
vn -1.000000 0.000000 0.000000
vn -1.000000 0.000000 0.000000
s off
g OBJ_Fence_01
usemtl lambert23SG
f 1/9/1 2/10/2 10/19/3 9/18/4
f 2/10/5 3/11/6 11/20/7 10/19/8
f 3/11/9 4/12/10 12/21/11 11/20/12
f 4/12/13 5/13/14 13/22/15 12/21/16
f 5/13/17 6/14/18 14/23/19 13/22/20
f 6/14/21 7/15/22 15/24/23 14/23/24
f 7/15/25 8/16/26 16/25/27 15/24/28
f 8/16/29 1/17/30 9/26/31 16/25/32
s 1
f 2/2/33 1/1/34 17/35/35
f 3/3/36 2/2/33 17/35/35
f 4/4/37 3/3/36 17/35/35
f 5/5/38 4/4/37 17/35/35
f 6/6/39 5/5/38 17/35/35
f 7/7/40 6/6/39 17/35/35
f 8/8/41 7/7/40 17/35/35
f 1/1/34 8/8/41 17/35/35
s 2
f 9/33/42 10/32/43 18/36/44
f 10/32/43 11/31/45 18/36/44
f 11/31/45 12/30/46 18/36/44
f 12/30/46 13/29/47 18/36/44
f 13/29/47 14/28/48 18/36/44
f 14/28/48 15/27/49 18/36/44
f 15/27/49 16/34/50 18/36/44
f 16/34/50 9/33/42 18/36/44
s off
f 19/37/51 20/38/52 28/39/53 27/40/54
f 20/38/55 21/41/56 29/42/57 28/39/58
f 21/41/59 22/43/60 30/44/61 29/42/62
f 22/43/63 23/45/64 31/46/65 30/44/66
f 23/45/67 24/47/68 32/48/69 31/46/70
f 24/47/71 25/49/72 33/50/73 32/48/74
f 25/49/75 26/51/76 34/52/77 33/50/78
f 26/51/79 19/53/80 27/54/81 34/52/82
s 3
f 20/55/83 19/56/84 35/57/85
f 21/58/86 20/55/83 35/57/85
f 22/59/87 21/58/86 35/57/85
f 23/60/88 22/59/87 35/57/85
f 24/61/89 23/60/88 35/57/85
f 25/62/90 24/61/89 35/57/85
f 26/63/91 25/62/90 35/57/85
f 19/56/84 26/63/91 35/57/85
s 4
f 27/64/92 28/65/93 36/66/94
f 28/65/93 29/67/95 36/66/94
f 29/67/95 30/68/96 36/66/94
f 30/68/96 31/69/97 36/66/94
f 31/69/97 32/70/98 36/66/94
f 32/70/98 33/71/99 36/66/94
f 33/71/99 34/72/100 36/66/94
f 34/72/100 27/64/92 36/66/94
s off
f 37/73/101 38/74/102 40/75/103 39/76/104
f 39/76/105 40/75/106 42/77/107 41/78/108
f 41/78/109 42/77/110 44/79/111 43/80/112
f 43/80/113 44/79/114 38/81/115 37/82/116
f 38/74/117 44/83/118 42/84/119 40/75/120
f 43/85/121 37/73/122 39/76/123 41/86/124
f 45/87/125 46/88/126 48/89/127 47/90/128
f 47/90/129 48/89/130 50/91/131 49/92/132
f 49/92/133 50/91/134 52/93/135 51/94/136
f 51/94/137 52/93/138 46/95/139 45/96/140
f 46/88/141 52/97/142 50/98/143 48/89/144
f 51/99/145 45/87/146 47/90/147 49/100/148
